<?xml version="1.0" encoding="UTF-8"?>
<!DOCTYPE svg PUBLIC "-//W3C//DTD SVG 1.1//EN" "http://www.w3.org/Graphics/SVG/1.1/DTD/svg11.dtd">
<!-- Creator: CorelDRAW 2020 (64 Bit) -->
<svg xmlns="http://www.w3.org/2000/svg" xml:space="preserve" width="245.086mm" height="34.224mm" version="1.1" style="shape-rendering:geometricPrecision; text-rendering:geometricPrecision; image-rendering:optimizeQuality; fill-rule:evenodd; clip-rule:evenodd"
viewBox="0 0 12525.67 1749.09"
 xmlns:xlink="http://www.w3.org/1999/xlink"
 xmlns:xodm="http://www.corel.com/coreldraw/odm/2003">
 <defs>
  <style type="text/css">
   <![CDATA[
    .fil2 {fill:none;fill-rule:nonzero}
    .fil6 {fill:#ED3237}
    .fil1 {fill:#6C0003}
    .fil4 {fill:#A60006}
    .fil5 {fill:#FEFEFE;fill-rule:nonzero}
    .fil0 {fill:#A60006;fill-rule:nonzero}
    .fil3 {fill:#DE0007;fill-rule:nonzero}
   ]]>
  </style>
   <clipPath id="id0" style="clip-rule:nonzero">
    <path d="M-0 1440.11l1108.69 -1440.11 252.09 0 0 289.46 -255.54 331.92 0 -199.28 -783.72 1018 -321.52 0zm1360.78 -649.5l0 365.5 225.99 -315.2 0 438.32 -115.35 160.89 -366.18 0 0 -317.58 255.54 -331.93zm532.63 -377.4l296.26 -413.21 246.12 0 0 320.15 -255.54 356.41 0 -225.1 -286.84 400.07 0 -438.32zm542.38 432.92l0 593.97 -255.54 0 0 -237.56 255.54 -356.42z"/>
   </clipPath>
     <mask id="id1">
  <linearGradient id="id2" gradientUnits="userSpaceOnUse" x1="48.73" y1="1511.67" x2="254.94" y2="1253.06">
   <stop offset="0" style="stop-opacity:1; stop-color:white"/>
   <stop offset="1" style="stop-opacity:0; stop-color:white"/>
  </linearGradient>
      <rect style="fill:url(#id2)" x="-176.12" y="1149.91" width="774.22" height="344.9"/>
     </mask>
     <mask id="id3">
  <linearGradient id="id4" gradientUnits="userSpaceOnUse" x1="2156.89" y1="1511.67" x2="2363.1" y2="1253.06">
   <stop offset="0" style="stop-opacity:1; stop-color:white"/>
   <stop offset="1" style="stop-opacity:0; stop-color:white"/>
  </linearGradient>
      <rect style="fill:url(#id4)" x="1932.04" y="1149.91" width="774.22" height="344.9"/>
     </mask>
   <clipPath id="id5" style="clip-rule:nonzero">
    <path d="M507.08 1440.11l1108.69 -1440.11 252.09 0 0 1156.11 828.9 -1156.11 246.12 0 -0.01 1440.11 -255.54 0 0 -988.65 -708.83 988.65 -366.18 0 0 -1018 -783.72 1018 -321.52 0z"/>
   </clipPath>
     <mask id="id6">
  <linearGradient id="id7" gradientUnits="userSpaceOnUse" x1="613.28" y1="1511.67" x2="819.49" y2="1253.06">
   <stop offset="0" style="stop-opacity:1; stop-color:white"/>
   <stop offset="1" style="stop-opacity:0; stop-color:white"/>
  </linearGradient>
      <rect style="fill:url(#id7)" x="388.44" y="1149.91" width="774.22" height="344.9"/>
     </mask>
     <mask id="id8">
  <linearGradient id="id9" gradientUnits="userSpaceOnUse" x1="2707.91" y1="1511.67" x2="2707.94" y2="1210.79">
   <stop offset="0" style="stop-opacity:1; stop-color:white"/>
   <stop offset="1" style="stop-opacity:0; stop-color:white"/>
  </linearGradient>
      <rect style="fill:url(#id9)" x="2483.07" y="1149.91" width="774.22" height="344.9"/>
     </mask>
 </defs>
 <g id="Camada_x0020_1">
  <metadata id="CorelCorpID_0Corel-Layer"/>
  <path class="fil0" d="M-0 1440.11l1108.69 -1440.11 252.09 0 0 289.46 -255.54 331.92 0 -199.28 -783.72 1018 -321.52 0zm1360.78 -649.5l0 365.5 225.99 -315.2 0 438.32 -115.35 160.89 -366.18 0 0 -317.58 255.54 -331.93zm532.63 -377.4l296.26 -413.21 246.12 0 0 320.15 -255.54 356.41 0 -225.1 -286.84 400.07 0 -438.32zm542.38 432.92l0 593.97 -255.54 0 0 -237.56 255.54 -356.42z"/>
  <g style="clip-path:url(#id0)">
   <g id="_2189667390496">
    <polygon id="1" class="fil1" style="mask:url(#id1)" points="-171,1489.7 593,1489.7 593,1155.02 -171,1155.02 "/>
    <polygon class="fil1" style="mask:url(#id3)" points="1937.15,1489.7 2701.15,1489.7 2701.15,1155.02 1937.15,1155.02 "/>
   </g>
  </g>
  <path class="fil2" d="M-0 1440.11l1108.69 -1440.11 252.09 0 0 289.46 -255.54 331.92 0 -199.28 -783.72 1018 -321.52 0zm1360.78 -649.5l0 365.5 225.99 -315.2 0 438.32 -115.35 160.89 -366.18 0 0 -317.58 255.54 -331.93zm532.63 -377.4l296.26 -413.21 246.12 0 0 320.15 -255.54 356.41 0 -225.1 -286.84 400.07 0 -438.32zm542.38 432.92l0 593.97 -255.54 0 0 -237.56 255.54 -356.42z"/>
  <polygon class="fil3" points="507.08,1440.11 1615.77,0 1867.86,0 1867.86,1156.11 2696.75,0 2942.87,0 2942.86,1440.11 2687.33,1440.11 2687.33,451.46 1978.5,1440.11 1612.32,1440.11 1612.32,422.1 828.6,1440.11 "/>
  <g style="clip-path:url(#id5)">
   <g id="_2189667380704">
    <polygon id="1" class="fil4" style="mask:url(#id6)" points="393.55,1489.7 1157.55,1489.7 1157.55,1155.02 393.55,1155.02 "/>
    <polygon class="fil4" style="mask:url(#id8)" points="2488.18,1489.7 3252.18,1489.7 3252.18,1155.02 2488.18,1155.02 "/>
   </g>
  </g>
  <polygon class="fil2" points="507.08,1440.11 1615.77,0 1867.86,0 1867.86,1156.11 2696.75,0 2942.87,0 2942.86,1440.11 2687.33,1440.11 2687.33,451.46 1978.5,1440.11 1612.32,1440.11 1612.32,422.1 828.6,1440.11 "/>
  <path class="fil5" d="M3477.9 99.21l30.18 0 0 398.65 -30.18 0 0 -398.65zm372.77 0l30.18 0 0 398.65 -26.77 0 -235.2 -343.03 0 343.03 -30.18 0 0 -398.65 25.06 0 236.91 344.45 0 -344.45zm226.97 404.92c-36.83,0 -68.05,-8.45 -93.68,-25.34 -25.63,-16.9 -43,-39.77 -52.11,-68.63l26.2 -15.37c7.22,24.67 20.98,44.23 41.29,58.66 20.32,14.43 46.42,21.64 78.31,21.64 32.27,0 57.05,-7.41 74.32,-22.21 17.27,-14.81 25.92,-33.98 25.92,-57.52 0,-22.02 -8.36,-38.92 -25.06,-50.68 -16.7,-11.77 -42.71,-23.45 -78.02,-34.83 -12.81,-4.65 -22.21,-8.07 -28.09,-10.25 -5.89,-2.09 -14.34,-5.22 -25.34,-9.21 -11.11,-4.08 -19.27,-7.78 -24.58,-11.2 -5.32,-3.42 -11.68,-7.97 -19.08,-13.67 -7.41,-5.69 -12.81,-11.48 -16.23,-17.37 -3.42,-5.89 -6.45,-12.91 -9.11,-21.07 -2.66,-8.17 -3.99,-17.18 -3.99,-27.05 0,-32.27 11.48,-58.19 34.46,-77.74 22.97,-19.55 51.73,-29.33 86.28,-29.33 31.13,0 57.71,7.78 79.73,23.35 22.02,15.57 38.16,35.69 48.41,60.37l-25.63 14.24c-18.99,-45.94 -53.16,-68.91 -102.51,-68.91 -27.34,0 -49.17,7.22 -65.49,21.64 -16.32,14.43 -24.49,32.84 -24.49,55.24 0,21.64 7.59,37.77 22.78,48.31 15.18,10.63 40.05,21.64 74.6,33.03 21.74,8.16 38.92,14.52 51.35,19.18 12.53,4.74 25.82,11.48 40.05,20.41 14.24,8.92 24.59,19.55 31.04,31.98 6.45,12.34 9.68,26.67 9.68,43 0,33.03 -11.96,59.51 -35.88,79.45 -23.92,19.93 -55.63,29.9 -95.11,29.9zm417.19 -404.92l0 28.48 -125.29 0 0 370.17 -30.76 0 0 -370.17 -125.29 0 0 -28.48 281.33 0zm44.17 0l30.18 0 0 398.65 -30.18 0 0 -398.65zm355.68 0l0 28.48 -125.29 0 0 370.17 -30.76 0 0 -370.17 -125.29 0 0 -28.48 281.33 0zm290.47 366.76c-26.76,25.44 -62.17,38.16 -106.21,38.16 -44.04,0 -79.35,-12.72 -105.92,-38.16 -26.58,-25.44 -39.87,-59.23 -39.87,-101.37l0 -265.39 30.18 0 0 265.39c0,33.41 10.06,60.17 30.18,80.3 20.13,20.12 48.6,30.18 85.43,30.18 36.83,0 65.4,-10.06 85.71,-30.18 20.31,-20.13 30.47,-46.89 30.47,-80.3l0 -265.39 30.18 0 0 265.39c0,42.14 -13.38,75.93 -40.15,101.37zm359.96 -366.76l0 28.48 -125.29 0 0 370.17 -30.76 0 0 -370.17 -125.29 0 0 -28.48 281.33 0zm349.99 344.84c-39.87,40.05 -88.47,60.08 -145.79,60.08 -57.33,0 -105.93,-20.03 -145.79,-60.08 -39.86,-40.06 -59.8,-88.56 -59.8,-145.51 0,-56.95 19.94,-105.45 59.8,-145.51 39.86,-40.05 88.46,-60.08 145.79,-60.08 57.33,0 105.92,20.03 145.79,60.08 39.86,40.06 59.8,88.56 59.8,145.51 0,56.95 -19.93,105.45 -59.8,145.51zm-270.23 -20.5c33.98,34.36 75.45,51.54 124.44,51.54 48.98,0 90.45,-17.18 124.44,-51.54 33.98,-34.36 50.97,-76.03 50.97,-125.01 0,-48.98 -16.99,-90.64 -50.97,-125 -33.98,-34.36 -75.46,-51.54 -124.44,-51.54 -48.98,0 -90.46,17.18 -124.44,51.54 -33.98,34.36 -50.97,76.03 -50.97,125 0,48.98 16.99,90.65 50.97,125.01z"/>
  <path class="fil5" d="M4099.71 682.73l0 637.19 -145.64 0 0 -370.48 -164.76 270.35 -16.38 0 -164.76 -270.35 0 370.48 -145.64 0 0 -637.19 145.64 0 172.96 283.1 172.95 -283.1 145.64 0zm227.22 497.01l254.88 0 0 140.18 -400.52 0 0 -637.19 395.97 0 0 140.18 -250.33 0 0 105.59 227.57 0 0 138.36 -227.57 0 0 112.88zm736.98 -497.01l0 140.18 -163.85 0 0 497.01 -145.65 0 0 -497.01 -163.85 0 0 -140.18 473.34 0zm181.71 497.01l254.88 0 0 140.18 -400.52 0 0 -637.19 395.97 0 0 140.18 -250.33 0 0 105.59 227.57 0 0 138.36 -227.57 0 0 112.88zm1173.91 -497.01l0 637.19 -145.64 0 0 -370.48 -164.76 270.35 -16.38 0 -164.76 -270.35 0 370.48 -145.64 0 0 -637.19 145.64 0 172.96 283.1 172.95 -283.1 145.64 0zm496.97 637.19l-34.14 -100.13 -245.17 0 -31.86 100.13 -159.3 0 216.64 -637.19 185.7 0 217.1 637.19 -148.98 0zm-235.15 -236.67l154.44 0 -79.8 -233.94 -74.64 233.94zm746.08 236.67l-120.31 -209.37 -69.03 0 0 209.37 -145.64 0 0 -637.19 254.88 0c60.68,0 112.27,21.24 154.75,63.72 42.48,42.48 63.72,94.06 63.72,154.75 0,38.84 -10.77,74.8 -32.32,107.87 -21.54,33.07 -49.91,58.71 -85.11,76.92l135.63 233.94 -156.57 0zm-189.34 -500.65l0 163.85 109.24 0c20.02,0 37.17,-7.89 51.43,-23.67 14.26,-15.78 21.39,-35.2 21.39,-58.26 0,-23.06 -7.13,-42.48 -21.39,-58.26 -14.26,-15.78 -31.41,-23.67 -51.43,-23.67l-109.24 0zm681.45 513.4c-95.28,0 -174.32,-31.71 -237.13,-95.13 -62.81,-63.41 -94.22,-142.15 -94.22,-236.22 0,-94.06 31.41,-172.8 94.22,-236.22 62.81,-63.41 141.85,-95.12 237.13,-95.12 57.04,0 109.84,13.2 158.39,39.6 48.55,26.4 86.78,62.35 114.69,107.87l-125.62 72.82c-13.96,-24.88 -33.99,-44.15 -60.08,-57.8 -26.09,-13.66 -55.22,-20.48 -87.38,-20.48 -56.44,0 -101.5,17.29 -135.18,51.88 -33.68,34.59 -50.52,80.41 -50.52,137.45 0,57.05 16.84,102.86 50.52,137.45 33.68,34.59 78.74,51.88 135.18,51.88 32.16,0 61.44,-6.98 87.84,-20.93 26.4,-13.96 46.27,-33.08 59.63,-57.35l125.62 72.82c-27.31,45.51 -65.24,81.47 -113.79,107.87 -48.55,26.4 -101.65,39.6 -159.3,39.6zm659.6 -649.94l145.65 0 0 637.19 -145.65 0 0 -253.06 -200.26 0 0 253.06 -145.64 0 0 -637.19 145.64 0 0 243.96 200.26 0 0 -243.96zm642.61 637.19l-34.14 -100.13 -245.17 0 -31.86 100.13 -159.3 0 216.64 -637.19 185.7 0 217.1 637.19 -148.98 0zm-235.15 -236.67l154.44 0 -79.8 -233.94 -74.64 233.94z"/>
  <polygon class="fil6" points="-0,1440.11 828.6,1440.11 698.44,1619.21 147.05,1619.21 "/>
  <polygon class="fil6" points="2180.25,1440.11 2942.86,1440.11 2823.07,1619.21 2295.19,1619.21 "/>
  <path class="fil5" d="M12463.67 1068.99l-59.39 -8.57 -21.92 89.2 55.91 20.52c-9.99,30.94 -21.8,61.01 -35.34,90.07l-54.97 -24.4 -43.58 80.6 48.7 34.49c-17.45,27.31 -36.52,53.43 -57.09,78.17l-46.47 -39.37 -62.76 67.71 38.85 45.76c-23.23,21.4 -47.75,41.34 -73.45,59.66l-38.48 -50.18 -75.6 47.83 25.71 56.62c-27.76,14.46 -56.5,27.2 -86.1,38.09l-22.64 -58.76 -86.24 24.77 10.1 62.63c-30.15,6.47 -60.98,11.05 -92.34,13.68l-8.03 -64.64 -89.96 2.09 -4.27 63.98c-31.37,-1.74 -62.23,-5.43 -92.47,-11.01l7.28 -65 -86.41 -21.92 -21.01 60.89c-32.33,-10.89 -63.7,-23.94 -93.94,-39.06 50.21,-32.65 97.25,-71.3 140.24,-115.65 6.28,-6.47 12.39,-13.07 18.44,-19.72 53.89,16.52 110.45,25.2 168.34,25.2 141.69,0 275.59,-51.26 381.2,-145.08l190.2 0 -50.43 -184.63c38.36,-79.44 58.66,-167.32 58.66,-258.37 0,-157.01 -60.25,-304.64 -169.64,-415.71 -109.49,-111.16 -255.1,-172.38 -409.98,-172.38 -58.12,0 -114.91,8.68 -169,25.32 -5.84,-6.4 -11.72,-12.75 -17.78,-18.99 -42.99,-44.34 -90.03,-82.99 -140.23,-115.65 30.39,-15.19 61.93,-28.3 94.44,-39.22l22.01 59.98 86.19 -24.07 -9.58 -61.57c30.52,-5.69 61.69,-9.45 93.37,-11.21l5.68 62.52 90.6 0 4.25 -61.26c31.81,2.57 63.06,7.18 93.62,13.71l-8.62 61.78 85.98 24.07 20.75 -57.54c29.85,10.92 58.83,23.71 86.81,38.27l-25.03 57.36 77.87 45.14 34.04 -49.42c25.98,18.4 50.76,38.44 74.24,59.98l-38.31 47.47 64.15 65.77 44.94 -39.05c20.28,24.33 39.11,49.97 56.38,76.79l-47.15 36.69 44.44 79.31 52.98 -25.29c13.56,28.87 25.46,58.72 35.51,89.45l-54.91 22.78 24.02 88.34 56.61 -10.35c5.88,31.53 9.91,63.73 11.97,96.49l-58.7 5.75 0 93.5 58.5 5.67c-2.03,30.51 -5.79,60.52 -11.15,89.95zm-1282.22 391.05c17.43,-29.94 33.4,-60.79 47.91,-92.46l132.13 0 0 -3.7c53.39,28.32 103.35,62.23 149.05,101.03 -47.88,50.85 -102.43,94.94 -162.24,130.77 -61.72,-36.98 -117.88,-82.73 -166.84,-135.64zm-190.82 239.8c7.84,-7.37 15.63,-14.82 23.27,-22.46 53.4,-53.4 100.48,-111.63 140.99,-174.12 1.24,1.3 2.46,2.63 3.72,3.93 42.99,44.34 90.02,82.99 140.23,115.65 -93.55,46.78 -197.92,74.16 -308.21,77.01zm-3.25 -432.63c3.1,0.07 6.19,0.15 9.28,0.25 34.82,78.41 81.83,151.29 140.01,216.14 -42.74,66.8 -92.85,128.43 -149.29,183.63l0 -400.02zm0 -331.24l102.31 0 0 313.35c-16.44,-2.25 -32.98,-4.04 -49.63,-5.35 -23.69,-54.04 -41.48,-111.4 -52.68,-171.19l0 -136.81zm0 -158.74c11.29,-60.29 29.3,-118.09 53.28,-172.51 11.42,-0.91 22.77,-2.12 34.08,-3.46 -0.01,0.54 -0.04,1.07 -0.04,1.61 0,84.6 67.56,153.19 150.89,153.19 20.68,0 40.38,-4.24 58.33,-11.88 2.7,15.38 5.06,30.88 7.08,46.48l-201.31 0 0 119.51 -102.31 0 0 -132.95zm0 -594.43c56.44,55.2 106.56,116.83 149.29,183.62 -57.86,64.49 -104.67,136.93 -139.44,214.85 -3.28,0.1 -6.56,0.19 -9.85,0.26l0 -398.73zm311.45 44.38c-50.21,32.66 -97.24,71.31 -140.23,115.65 -1.26,1.3 -2.47,2.63 -3.72,3.94 -40.51,-62.49 -87.59,-120.73 -140.99,-174.13 -7.64,-7.64 -15.43,-15.09 -23.27,-22.45 110.28,2.85 214.65,30.22 308.21,77zm-221.59 347.8c-7.97,1.01 -15.98,1.93 -24.02,2.71 29.59,-60.77 66.69,-116.97 110.07,-167.31 8.32,14.55 16.28,29.33 23.91,44.3 -56.06,14.93 -99.36,61.8 -109.96,120.29zm582.57 38.8l-89.11 296.4 -209.21 0 0 -119.51 -44.43 0c-2.5,-19.93 -5.51,-39.76 -9.13,-59.45 41.26,-27.34 68.54,-74.6 68.54,-128.35 0,-30.94 -9.07,-59.72 -24.6,-83.81 62.5,-30.91 121.4,-69.59 175.45,-115.59 54.54,61.8 99.48,132.74 132.47,210.31zm394.98 -129.83l-355.94 0 -17.77 59.09c-28.97,-56.88 -64.56,-110.49 -106.42,-159.75 47.75,-13.63 98.08,-21 150.12,-21 305.85,0 553.82,251.74 553.82,562.29 0,77.7 -15.53,151.73 -43.6,219.05l-180.2 -659.68zm-240.1 574.46l54.12 -225.69 50.82 225.69 -104.94 0zm-167.76 309.17l93.62 0 26.75 -111.56 196.81 0 25.12 111.56 76.65 0c-94.03,74.73 -212.44,119.29 -341.1,119.29 -51.82,0 -101.95,-7.31 -149.52,-20.83 26.44,-31.17 50.33,-64.09 71.68,-98.46zm-285.43 -431.61l201.45 0 -129.77 431.61 155.23 0c-18.52,27.41 -38.7,53.56 -60.42,78.24 -51.44,-43.89 -107.3,-81.09 -166.49,-111.29l0 -398.55zm-160.68 431.61c-11.6,24.55 -24.11,48.59 -37.52,72.05 -19.68,-22.83 -37.98,-46.93 -54.96,-72.05l92.48 0zm-148.24 -96.6c12.47,1.2 24.83,2.75 37.12,4.5l0 63.31c-13.42,-21.88 -25.83,-44.51 -37.12,-67.81zm457.3 -886.58c-52.85,44.77 -111.36,83.04 -174.29,113.65 -27.53,-29.76 -66.6,-48.38 -109.99,-48.38 -3.92,0 -7.79,0.2 -11.65,0.51 -10.21,-20.44 -21.04,-40.51 -32.49,-60.2 48.96,-52.91 105.13,-98.67 166.84,-135.64 59.53,35.66 113.86,79.52 161.58,130.06zm-548.28 197.2c-10.87,-0.13 -21.69,-0.49 -32.46,-1.02l0 -105.22 -177.56 0c52.74,-109.56 124.07,-208.48 210.02,-292.55l0 398.8zm0 94.9c-22.87,74.77 -35.37,153.28 -36.74,233.68l-24.09 0 0 -80.18 -237.4 0 0 -76.09c2.34,-14.11 4.96,-28.11 7.86,-42.02l257.92 0 0 -105.47c10.78,0.52 21.6,0.85 32.46,0.97l0 69.11zm0 564.84c-85.93,0.96 -169.84,14.44 -249.65,39.61 -21.65,-59.32 -38.01,-121.18 -48.58,-184.98l0 -43.93 237.4 0 0 -116.07 24.05 0c1.03,81.74 13.56,161.58 36.79,237.54l0 67.83zm0 425.88c-103.75,-101.48 -186.28,-224.54 -240.4,-361.91 76.02,-23.91 156.73,-37.21 240.4,-38.18l0 400.08zm-529.29 -202.31c43.7,-37.1 91.28,-69.78 142.04,-97.33l89.02 0 0 -41.7c10.97,-4.36 22.04,-8.53 33.22,-12.44 3.38,8.61 6.87,17.2 10.49,25.75 53.59,126.7 130.3,240.49 228.01,338.2 7.67,7.67 15.48,15.15 23.35,22.54 -206.32,-3.61 -392.37,-92.96 -526.13,-235.01zm-17.44 -19.1c-118.91,-135.09 -192.15,-313.67 -194.8,-509.84l144.42 0 0 431.61 157.99 0c-37.58,23.11 -73.57,49.2 -107.62,78.23zm0.64 -1042.34c31.02,26.4 63.64,50.38 97.61,71.88l-148.63 0 0 434.83 -144.37 0c3.55,-195.01 76.89,-372.41 195.39,-506.7zm247.85 811.15c7.08,25.07 15.05,49.93 24.02,74.5 -8.05,2.82 -16.05,5.8 -24.02,8.86l0 -83.36zm295.08 -1064.52c-7.87,7.4 -15.69,14.87 -23.36,22.53 -88.49,88.49 -159.68,190.21 -212.16,302.72l-159.02 0c-46.58,-26.17 -90.42,-56.64 -130.92,-90.95 133.71,-141.64 319.48,-230.7 525.46,-234.3zm1333.3 192.73c-151.25,-155.99 -352.47,-241.91 -566.57,-241.91 -133.66,0 -262.29,33.49 -376.88,96.6 -114.59,-63.11 -243.21,-96.6 -376.87,-96.6 -214.1,0 -415.31,85.91 -566.56,241.91 -150.85,155.59 -233.93,362.34 -233.93,582.18 0,206.65 73.42,401.73 207.52,553.62 0.03,0.03 0.06,0.07 0.09,0.1 8.53,9.66 17.29,19.16 26.32,28.46 151.25,156 352.46,241.91 566.56,241.91 133.66,0 262.29,-33.49 376.87,-96.59 114.59,63.1 243.22,96.59 376.88,96.59 214.1,0 415.32,-85.91 566.57,-241.91 150.85,-155.59 233.93,-362.34 233.93,-582.18 0,-219.84 -83.07,-426.59 -233.93,-582.18z"/>
 </g>
</svg>
