<?xml version="1.0" encoding="UTF-8"?>
<!DOCTYPE svg PUBLIC "-//W3C//DTD SVG 1.1//EN" "http://www.w3.org/Graphics/SVG/1.1/DTD/svg11.dtd">
<!-- Creator: CorelDRAW 2020 (64 Bit) -->
<svg xmlns="http://www.w3.org/2000/svg" xml:space="preserve" width="245.086mm" height="34.2242mm" version="1.1" style="shape-rendering:geometricPrecision; text-rendering:geometricPrecision; image-rendering:optimizeQuality; fill-rule:evenodd; clip-rule:evenodd"
viewBox="0 0 4823.45 673.55"
 xmlns:xlink="http://www.w3.org/1999/xlink"
 xmlns:xodm="http://www.corel.com/coreldraw/odm/2003">
 <defs>
  <style type="text/css">
   <![CDATA[
    .fil2 {fill:none;fill-rule:nonzero}
    .fil1 {fill:#6C0003}
    .fil4 {fill:#A60006}
    .fil6 {fill:#ED3237}
    .fil0 {fill:#A60006;fill-rule:nonzero}
    .fil3 {fill:#DE0007;fill-rule:nonzero}
    .fil5 {fill:#FEFEFE;fill-rule:nonzero}
   ]]>
  </style>
    <clipPath id="id0" style="clip-rule:nonzero">
     <path d="M-0 554.56l426.94 -554.56 97.08 0 0 111.47 -98.41 127.82 0 -76.74 -301.8 392.02 -123.81 0 0 0zm524.02 -250.11l0 140.75 87.03 -121.38 0 168.79 -44.42 61.96 -141.01 0 0 -122.3 98.41 -127.82 -0 0zm205.11 -145.33l114.08 -159.12 94.78 0 0 123.29 -98.41 137.25 0 -86.68 -110.46 154.06 0 -168.79 0 0zm208.86 166.71l0 228.73 -98.41 0 0 -91.48 98.41 -137.25 0 0.01z"/>
    </clipPath>
      <mask id="id1">
  <linearGradient id="id2" gradientUnits="userSpaceOnUse" x1="19.32" y1="579.71" x2="97.6" y2="483.31">
   <stop offset="0" style="stop-opacity:1; stop-color:white"/>
   <stop offset="1" style="stop-opacity:0; stop-color:white"/>
  </linearGradient>
       <rect style="fill:url(#id2)" x="-66.6" y="444.03" width="295.71" height="130.38"/>
      </mask>
      <mask id="id3">
  <linearGradient id="id4" gradientUnits="userSpaceOnUse" x1="831.07" y1="579.71" x2="909.73" y2="483.31">
   <stop offset="0" style="stop-opacity:1; stop-color:white"/>
   <stop offset="1" style="stop-opacity:0; stop-color:white"/>
  </linearGradient>
       <rect style="fill:url(#id4)" x="745.22" y="444.03" width="295.71" height="130.38"/>
      </mask>
    <clipPath id="id5" style="clip-rule:nonzero">
     <path d="M195.27 554.56l426.94 -554.56 97.08 0 0 445.2 319.2 -445.2 94.78 0 -0 554.56 -98.41 0 0 -380.71 -272.96 380.71 -141.01 0 0 -392.02 -301.8 392.02 -123.81 0z"/>
    </clipPath>
      <mask id="id6">
  <linearGradient id="id7" gradientUnits="userSpaceOnUse" x1="236.88" y1="579.71" x2="315.16" y2="483.31">
   <stop offset="0" style="stop-opacity:1; stop-color:white"/>
   <stop offset="1" style="stop-opacity:0; stop-color:white"/>
  </linearGradient>
       <rect style="fill:url(#id7)" x="150.8" y="444.03" width="295.7" height="130.38"/>
      </mask>
      <mask id="id8">
  <linearGradient id="id9" gradientUnits="userSpaceOnUse" x1="1043.25" y1="579.71" x2="1043.25" y2="467.24">
   <stop offset="0" style="stop-opacity:1; stop-color:white"/>
   <stop offset="1" style="stop-opacity:0; stop-color:white"/>
  </linearGradient>
       <rect style="fill:url(#id9)" x="957.41" y="444.03" width="295.7" height="130.38"/>
      </mask>
 </defs>
 <g id="Camada_x0020_1">
  <metadata id="CorelCorpID_0Corel-Layer"/>
  <g id="_2297908564128">
   <path class="fil0" d="M-0 554.56l426.94 -554.56 97.08 0 0 111.47 -98.41 127.82 0 -76.74 -301.8 392.02 -123.81 0 0 0zm524.02 -250.11l0 140.75 87.03 -121.38 0 168.79 -44.42 61.96 -141.01 0 0 -122.3 98.41 -127.82 -0 0zm205.11 -145.33l114.08 -159.12 94.78 0 0 123.29 -98.41 137.25 0 -86.68 -110.46 154.06 0 -168.79 0 0zm208.86 166.71l0 228.73 -98.41 0 0 -91.48 98.41 -137.25 0 0.01z"/>
   <g>
   </g>
   <g style="clip-path:url(#id0)">
    <g id="_2297908571520">
     <polygon id="_1" class="fil1" style="mask:url(#id1)" points="-65.85,573.66 228.36,573.66 228.36,444.78 -65.85,444.78 "/>
     <polygon class="fil1" style="mask:url(#id3)" points="745.97,573.66 1040.17,573.66 1040.17,444.78 745.97,444.78 "/>
    </g>
   </g>
   <path class="fil2" d="M-0 554.56l426.94 -554.56 97.08 0 0 111.47 -98.41 127.82 0 -76.74 -301.8 392.02 -123.81 0 0 0zm524.02 -250.11l0 140.75 87.03 -121.38 0 168.79 -44.42 61.96 -141.01 0 0 -122.3 98.41 -127.82 -0 0zm205.11 -145.33l114.08 -159.12 94.78 0 0 123.29 -98.41 137.25 0 -86.68 -110.46 154.06 0 -168.79 0 0zm208.86 166.71l0 228.73 -98.41 0 0 -91.48 98.41 -137.25 0 0.01z"/>
   <path class="fil2" d="M-0 554.56l426.94 -554.56 97.08 0 0 111.47 -98.41 127.82 0 -76.74 -301.8 392.02 -123.81 0 0 0zm524.02 -250.11l0 140.75 87.03 -121.38 0 168.79 -44.42 61.96 -141.01 0 0 -122.3 98.41 -127.82 -0 0zm205.11 -145.33l114.08 -159.12 94.78 0 0 123.29 -98.41 137.25 0 -86.68 -110.46 154.06 0 -168.79 0 0zm208.86 166.71l0 228.73 -98.41 0 0 -91.48 98.41 -137.25 0 0.01z"/>
   <polygon class="fil3" points="195.27,554.56 622.21,0 719.29,0 719.29,445.2 1038.48,0 1133.25,0 1133.25,554.56 1034.85,554.56 1034.85,173.85 761.89,554.56 620.88,554.56 620.88,162.54 319.08,554.56 "/>
   <g>
   </g>
   <g style="clip-path:url(#id5)">
    <g>
     <polygon id="_1_0" class="fil4" style="mask:url(#id6)" points="151.55,573.66 445.75,573.66 445.75,444.78 151.55,444.78 "/>
     <polygon class="fil4" style="mask:url(#id8)" points="958.16,573.66 1252.37,573.66 1252.37,444.78 958.16,444.78 "/>
    </g>
   </g>
   <polygon class="fil2" points="195.27,554.56 622.21,0 719.29,0 719.29,445.2 1038.48,0 1133.26,0 1133.26,554.56 1034.85,554.56 1034.85,173.85 761.89,554.56 620.88,554.56 620.88,162.55 319.08,554.56 "/>
   <polygon class="fil2" points="195.27,554.56 622.21,0 719.29,0 719.29,445.2 1038.48,0 1133.25,0 1133.25,554.56 1034.85,554.56 1034.85,173.85 761.89,554.56 620.88,554.56 620.88,162.54 319.08,554.56 "/>
   <path class="fil5" d="M1339.29 38.21l11.62 0 0 153.51 -11.62 0 0 -153.51zm143.55 0l11.62 0 0 153.51 -10.31 0 -90.57 -132.1 0 132.1 -11.62 0 0 -153.51 9.65 0 91.23 132.64 0 -132.64 0 0zm87.4 155.93c-14.18,0 -26.2,-3.25 -36.07,-9.76 -9.87,-6.51 -16.56,-15.32 -20.07,-26.43l10.09 -5.92c2.78,9.5 8.08,17.03 15.9,22.59 7.83,5.56 17.88,8.33 30.16,8.33 12.43,0 21.97,-2.85 28.62,-8.55 6.65,-5.7 9.98,-13.09 9.98,-22.15 0,-8.48 -3.22,-14.99 -9.65,-19.52 -6.43,-4.53 -16.45,-9.03 -30.04,-13.41 -4.93,-1.79 -8.55,-3.11 -10.82,-3.95 -2.27,-0.8 -5.52,-2.01 -9.76,-3.55 -4.28,-1.57 -7.42,-3 -9.46,-4.31 -2.05,-1.32 -4.5,-3.07 -7.35,-5.26 -2.85,-2.19 -4.93,-4.42 -6.25,-6.69 -1.32,-2.27 -2.48,-4.97 -3.51,-8.11 -1.02,-3.15 -1.54,-6.62 -1.54,-10.42 0,-12.43 4.42,-22.41 13.27,-29.94 8.84,-7.53 19.92,-11.29 33.22,-11.29 11.99,0 22.22,3 30.7,8.99 8.48,6 14.7,13.74 18.64,23.25l-9.87 5.48c-7.31,-17.69 -20.47,-26.54 -39.48,-26.54 -10.53,0 -18.93,2.78 -25.22,8.33 -6.28,5.56 -9.43,12.65 -9.43,21.27 0,8.33 2.92,14.54 8.77,18.6 5.85,4.09 15.42,8.33 28.73,12.72 8.37,3.14 14.99,5.59 19.77,7.39 4.83,1.82 9.94,4.42 15.42,7.86 5.48,3.43 9.47,7.53 11.95,12.31 2.48,4.75 3.73,10.27 3.73,16.56 0,12.72 -4.61,22.92 -13.82,30.6 -9.21,7.68 -21.42,11.51 -36.63,11.51l-0.01 -0.01zm160.65 -155.93l0 10.97 -48.25 0 0 142.55 -11.85 0 0 -142.55 -48.25 0 0 -10.97 108.34 0 0 0zm17.01 0l11.62 0 0 153.51 -11.62 0 0 -153.51zm136.97 0l0 10.97 -48.25 0 0 142.55 -11.85 0 0 -142.55 -48.25 0 0 -10.97 108.34 0 0 0zm111.86 141.23c-10.3,9.8 -23.94,14.7 -40.9,14.7 -16.96,0 -30.56,-4.9 -40.79,-14.7 -10.24,-9.8 -15.35,-22.81 -15.35,-39.04l0 -102.2 11.62 0 0 102.2c0,12.87 3.87,23.17 11.62,30.92 7.75,7.75 18.71,11.62 32.9,11.62 14.18,0 25.19,-3.87 33.01,-11.62 7.82,-7.75 11.73,-18.06 11.73,-30.92l0 -102.2 11.62 0 0 102.2c0,16.23 -5.15,29.24 -15.46,39.04zm138.61 -141.23l0 10.97 -48.25 0 0 142.55 -11.85 0 0 -142.55 -48.25 0 0 -10.97 108.34 0 0 0zm134.77 132.79c-15.35,15.42 -34.07,23.14 -56.14,23.14 -22.08,0 -40.79,-7.71 -56.14,-23.14 -15.35,-15.43 -23.03,-34.1 -23.03,-56.03 0,-21.93 7.68,-40.61 23.03,-56.03 15.35,-15.42 34.07,-23.14 56.14,-23.14 22.08,0 40.79,7.71 56.14,23.14 15.35,15.43 23.03,34.1 23.03,56.03 0,21.93 -7.68,40.61 -23.03,56.03zm-104.06 -7.89c13.09,13.23 29.05,19.85 47.92,19.85 18.86,0 34.83,-6.62 47.92,-19.85 13.09,-13.23 19.63,-29.28 19.63,-48.14 0,-18.86 -6.54,-34.9 -19.63,-48.13 -13.09,-13.23 -29.06,-19.85 -47.92,-19.85 -18.86,0 -34.83,6.62 -47.92,19.85 -13.09,13.23 -19.63,29.28 -19.63,48.13 0,18.86 6.54,34.91 19.63,48.14z"/>
   <path class="fil5" d="M1578.74 262.91l0 245.37 -56.08 0 0 -142.67 -63.45 104.11 -6.31 0 -63.45 -104.11 0 142.67 -56.08 0 0 -245.37 56.08 0 66.61 109.02 66.6 -109.02 56.08 0 -0.01 0zm87.5 191.39l98.15 0 0 53.98 -154.24 0 0 -245.37 152.48 0 0 53.98 -96.4 0 0 40.66 87.63 0 0 53.28 -87.63 0 0 43.47zm283.8 -191.39l0 53.98 -63.1 0 0 191.39 -56.09 0 0 -191.39 -63.1 0 0 -53.98 182.28 0 0 0zm69.97 191.39l98.15 0 0 53.98 -154.24 0 0 -245.37 152.48 0 0 53.98 -96.4 0 0 40.66 87.63 0 0 53.28 -87.63 0 0 43.47zm452.05 -191.39l0 245.37 -56.08 0 0 -142.67 -63.44 104.11 -6.31 0 -63.45 -104.11 0 142.67 -56.08 0 0 -245.37 56.08 0 66.61 109.02 66.6 -109.02 56.08 0 -0.01 0zm191.38 245.37l-13.15 -38.56 -94.41 0 -12.27 38.56 -61.34 0 83.42 -245.37 71.51 0 83.6 245.37 -57.37 0 0.01 0zm-90.55 -91.14l59.47 0 -30.73 -90.09 -28.74 90.09zm287.3 91.14l-46.33 -80.63 -26.58 0 0 80.63 -56.08 0 0 -245.37 98.15 0c23.37,0 43.23,8.18 59.59,24.54 16.36,16.36 24.54,36.22 24.54,59.59 0,14.96 -4.15,28.8 -12.45,41.54 -8.3,12.74 -19.22,22.61 -32.77,29.62l52.23 90.09 -60.29 0 0 -0zm-72.91 -192.79l0 63.1 42.07 0c7.71,0 14.31,-3.04 19.8,-9.11 5.49,-6.08 8.24,-13.55 8.24,-22.44 0,-8.88 -2.75,-16.36 -8.24,-22.44 -5.49,-6.08 -12.1,-9.11 -19.8,-9.11l-42.07 0 0 0zm262.42 197.7c-36.69,0 -67.13,-12.21 -91.32,-36.63 -24.19,-24.42 -36.28,-54.74 -36.28,-90.96 0,-36.22 12.1,-66.54 36.28,-90.96 24.19,-24.42 54.62,-36.63 91.32,-36.63 21.97,0 42.3,5.08 60.99,15.25 18.7,10.17 33.42,24.01 44.17,41.54l-48.37 28.04c-5.38,-9.58 -13.09,-17 -23.14,-22.26 -10.05,-5.26 -21.26,-7.89 -33.65,-7.89 -21.73,0 -39.09,6.66 -52.06,19.98 -12.97,13.32 -19.45,30.97 -19.45,52.93 0,21.97 6.48,39.61 19.45,52.93 12.97,13.32 30.32,19.98 52.06,19.98 12.39,0 23.66,-2.69 33.83,-8.06 10.17,-5.38 17.82,-12.74 22.96,-22.09l48.37 28.04c-10.52,17.53 -25.12,31.37 -43.82,41.54 -18.7,10.17 -39.14,15.25 -61.34,15.25l0 0.01zm254 -250.28l56.09 0 0 245.37 -56.09 0 0 -97.45 -77.12 0 0 97.45 -56.08 0 0 -245.37 56.08 0 0 93.95 77.12 0 0 -93.95zm247.46 245.37l-13.15 -38.56 -94.41 0 -12.27 38.56 -61.34 0 83.42 -245.37 71.51 0 83.6 245.37 -57.37 0 0.01 0zm-90.55 -91.14l59.47 0 -30.73 -90.09 -28.74 90.09z"/>
   <polygon class="fil6" points="-0,554.56 319.08,554.56 268.96,623.53 56.63,623.53 "/>
   <polygon class="fil6" points="839.58,554.56 1133.25,554.56 1087.12,623.53 883.84,623.53 "/>
   <path class="fil5" d="M4799.57 411.65l-22.87 -3.3 -8.44 34.35 21.53 7.9c-3.85,11.91 -8.4,23.49 -13.61,34.69l-21.17 -9.4 -16.78 31.04 18.75 13.28c-6.72,10.52 -14.06,20.57 -21.99,30.1l-17.9 -15.16 -24.17 26.07 14.96 17.62c-8.94,8.24 -18.39,15.92 -28.29,22.97l-14.82 -19.32 -29.11 18.42 9.9 21.8c-10.69,5.57 -21.76,10.47 -33.16,14.67l-8.72 -22.63 -33.21 9.54 3.89 24.12c-11.61,2.49 -23.48,4.25 -35.56,5.27l-3.09 -24.89 -34.64 0.8 -1.64 24.64c-12.08,-0.67 -23.96,-2.09 -35.61,-4.24l2.8 -25.03 -33.28 -8.44 -8.09 23.45c-12.45,-4.19 -24.53,-9.22 -36.17,-15.04 19.33,-12.57 37.45,-27.46 54,-44.54 2.42,-2.49 4.77,-5.03 7.1,-7.59 20.75,6.36 42.53,9.7 64.83,9.7 54.56,0 106.13,-19.74 146.79,-55.87l73.24 0 -19.42 -71.1c14.77,-30.59 22.59,-64.43 22.59,-99.49 0,-60.46 -23.2,-117.31 -65.33,-160.08 -42.16,-42.81 -98.24,-66.38 -157.88,-66.38 -22.38,0 -44.25,3.34 -65.08,9.75 -2.25,-2.46 -4.51,-4.91 -6.85,-7.31 -16.56,-17.07 -34.67,-31.96 -54,-44.54 11.7,-5.85 23.85,-10.9 36.37,-15.1l8.48 23.1 33.19 -9.27 -3.69 -23.71c11.75,-2.19 23.76,-3.64 35.95,-4.32l2.19 24.08 34.89 0 1.64 -23.59c12.25,0.99 24.28,2.77 36.05,5.28l-3.32 23.79 33.11 9.27 7.99 -22.16c11.5,4.21 22.65,9.13 33.43,14.74l-9.64 22.09 29.99 17.38 13.11 -19.03c10,7.09 19.55,14.8 28.59,23.1l-14.75 18.28 24.7 25.33 17.31 -15.04c7.81,9.37 15.06,19.24 21.71,29.57l-18.16 14.13 17.11 30.54 20.4 -9.74c5.22,11.12 9.8,22.61 13.67,34.45l-21.14 8.77 9.25 34.02 21.8 -3.99c2.27,12.14 3.82,24.54 4.61,37.16l-22.61 2.21 0 36.01 22.53 2.18c-0.78,11.75 -2.23,23.31 -4.29,34.64l-0 0.01zm-493.76 150.59c6.71,-11.53 12.86,-23.41 18.45,-35.6l50.88 0 0 -1.42c20.56,10.91 39.8,23.96 57.4,38.9 -18.44,19.58 -39.44,36.56 -62.48,50.36 -23.77,-14.24 -45.39,-31.86 -64.25,-52.23l-0 0zm-73.48 92.34c3.02,-2.84 6.02,-5.71 8.96,-8.65 20.56,-20.56 38.69,-42.99 54.29,-67.05 0.48,0.5 0.95,1.01 1.43,1.51 16.56,17.07 34.67,31.96 54,44.54 -36.03,18.01 -76.22,28.56 -118.69,29.65l0 -0zm-1.25 -166.6c1.19,0.03 2.38,0.06 3.57,0.1 13.41,30.19 31.51,58.26 53.92,83.23 -16.46,25.72 -35.76,49.46 -57.49,70.71l0 -154.04 0 0zm0 -127.56l39.4 0 0 120.67c-6.33,-0.87 -12.7,-1.55 -19.11,-2.06 -9.12,-20.81 -15.97,-42.9 -20.29,-65.92l0 -52.68zm0 -61.13c4.35,-23.22 11.28,-45.47 20.52,-66.43 4.4,-0.35 8.77,-0.82 13.12,-1.33 -0,0.21 -0.02,0.41 -0.02,0.62 0,32.58 26.02,58.99 58.11,58.99 7.96,0 15.55,-1.63 22.46,-4.58 1.04,5.92 1.95,11.89 2.73,17.9l-77.52 0 0 46.02 -39.4 0 0 -51.2 0 0.01zm0 -228.91c21.73,21.26 41.03,44.99 57.49,70.71 -22.28,24.83 -40.31,52.73 -53.7,82.74 -1.26,0.04 -2.53,0.07 -3.79,0.1l0 -153.54zm119.94 17.09c-19.33,12.58 -37.45,27.46 -54,44.54 -0.49,0.5 -0.95,1.01 -1.43,1.52 -15.6,-24.06 -33.73,-46.49 -54.29,-67.05 -2.94,-2.94 -5.94,-5.81 -8.96,-8.65 42.47,1.1 82.66,11.64 118.69,29.65l-0 -0zm-85.33 133.93c-3.07,0.39 -6.15,0.74 -9.25,1.04 11.4,-23.4 25.68,-45.04 42.39,-64.43 3.2,5.6 6.27,11.29 9.21,17.06 -21.59,5.75 -38.26,23.8 -42.34,46.32l0 0zm224.34 14.94l-34.32 114.14 -80.56 0 0 -46.02 -17.11 0c-0.96,-7.68 -2.12,-15.31 -3.51,-22.89 15.89,-10.53 26.39,-28.73 26.39,-49.43 0,-11.91 -3.49,-23 -9.47,-32.27 24.07,-11.9 46.75,-26.8 67.56,-44.51 21,23.8 38.31,51.12 51.01,80.99l0 -0zm152.1 -50l-137.07 0 -6.84 22.75c-11.15,-21.9 -24.86,-42.55 -40.98,-61.52 18.39,-5.25 37.77,-8.09 57.81,-8.09 117.78,0 213.27,96.94 213.27,216.53 0,29.92 -5.98,58.43 -16.79,84.35l-69.39 -254.03 -0 0zm-92.46 221.22l20.84 -86.91 19.57 86.91 -40.41 0zm-64.6 119.06l36.05 0 10.3 -42.96 75.79 0 9.67 42.96 29.52 0c-36.21,28.78 -81.81,45.94 -131.35,45.94 -19.95,0 -39.26,-2.81 -57.58,-8.02 10.18,-12 19.38,-24.68 27.6,-37.91l-0 0zm-109.92 -166.21l77.58 0 -49.97 166.21 59.78 0c-7.13,10.55 -14.9,20.63 -23.27,30.13 -19.81,-16.9 -41.32,-31.23 -64.11,-42.86l0 -153.48 0 -0zm-61.87 166.21c-4.47,9.45 -9.29,18.71 -14.45,27.75 -7.58,-8.79 -14.62,-18.07 -21.16,-27.75l35.61 0zm-57.09 -37.2c4.8,0.46 9.56,1.06 14.29,1.73l0 24.38c-5.17,-8.43 -9.95,-17.14 -14.29,-26.11l0 -0zm176.1 -341.41c-20.35,17.24 -42.88,31.98 -67.12,43.77 -10.6,-11.46 -25.65,-18.63 -42.35,-18.63 -1.51,0 -3,0.08 -4.49,0.2 -3.93,-7.87 -8.1,-15.6 -12.51,-23.18 18.85,-20.38 40.48,-38 64.25,-52.23 22.92,13.73 43.85,30.62 62.22,50.08l0 -0zm-211.13 75.94c-4.19,-0.05 -8.35,-0.19 -12.5,-0.39l0 -40.52 -68.38 0c20.31,-42.19 47.78,-80.28 80.88,-112.66l0 153.57 0 -0zm0 36.54c-8.81,28.79 -13.62,59.03 -14.15,89.99l-9.28 0 0 -30.88 -91.42 0 0 -29.3c0.9,-5.43 1.91,-10.82 3.03,-16.18l99.32 0 0 -40.61c4.15,0.2 8.32,0.33 12.5,0.37l0 26.61 -0 0zm0 217.51c-33.09,0.37 -65.4,5.56 -96.14,15.25 -8.34,-22.84 -14.64,-46.66 -18.71,-71.23l0 -16.92 91.42 0 0 -44.7 9.26 0c0.4,31.48 5.22,62.22 14.17,91.47l0 26.12 -0 0zm0 164c-39.95,-39.08 -71.73,-86.47 -92.57,-139.37 29.27,-9.21 60.35,-14.33 92.57,-14.7l0 154.06 0 0.01zm-203.82 -77.91c16.83,-14.29 35.15,-26.87 54.7,-37.48l34.28 0 0 -16.06c4.22,-1.68 8.49,-3.28 12.79,-4.79 1.3,3.32 2.65,6.62 4.04,9.92 20.64,48.79 50.18,92.61 87.8,130.24 2.95,2.95 5.96,5.83 8.99,8.68 -79.45,-1.39 -151.1,-35.8 -202.6,-90.5l-0 -0zm-6.72 -7.35c-45.79,-52.02 -73.99,-120.79 -75.01,-196.33l55.61 0 0 166.21 60.84 0c-14.47,8.9 -28.33,18.95 -41.44,30.13l0.01 0zm0.25 -401.39c11.95,10.17 24.51,19.4 37.59,27.68l-57.24 0 0 167.45 -55.59 0c1.37,-75.1 29.61,-143.41 75.24,-195.12l0 -0.01zm95.44 312.36c2.73,9.65 5.8,19.23 9.25,28.69 -3.1,1.09 -6.18,2.23 -9.25,3.41l0 -32.1zm113.63 -409.93c-3.03,2.85 -6.04,5.73 -9,8.68 -34.08,34.08 -61.49,73.25 -81.7,116.57l-61.24 0c-17.94,-10.08 -34.82,-21.81 -50.42,-35.02 51.49,-54.54 123.03,-88.84 202.35,-90.23l0 0zm513.43 74.22c-58.24,-60.07 -135.73,-93.16 -218.18,-93.16 -51.47,0 -101,12.9 -145.13,37.2 -44.13,-24.3 -93.66,-37.2 -145.13,-37.2 -82.45,0 -159.93,33.08 -218.17,93.16 -58.09,59.92 -90.08,139.53 -90.08,224.19 0,79.58 28.27,154.7 79.91,213.19 0.01,0.01 0.02,0.03 0.04,0.04 3.28,3.72 6.66,7.38 10.14,10.96 58.24,60.07 135.73,93.16 218.17,93.16 51.47,0 101,-12.9 145.13,-37.19 44.13,24.3 93.66,37.19 145.13,37.19 82.45,0 159.93,-33.08 218.18,-93.16 58.09,-59.92 90.08,-139.53 90.08,-224.19 0,-84.66 -31.99,-164.27 -90.08,-224.19l-0 -0z"/>
  </g>
 </g>
</svg>
